<svg viewBox="0 0 307.39 236.43" xmlns="http://www.w3.org/2000/svg"><path d="m68 91.57v.24z" fill="#191d23" opacity=".55"/><path d="m8.44 145.84 149.94 52.95 148.96-83.26-128.92-52.07z" fill="#f45a16"/><path d="m158.67 235.56-149.55-57.18c-7.5-2.87-9.69-11.79-9-19 .36-3.69 1.18-7.38 3.35-10.38a14.89 14.89 0 0 1 8.28-6 12.77 12.77 0 0 1 8.36.74l132.26 58.76z" fill="#027396"/><path d="m8.44 177.22 149.94 59.21 148.96-85.96v-8.58l-128.92-42.21z" fill="#027396"/><path d="m157.82 232.03 149.52-85.73v-32.29l-149.52 83.28z" fill="#e3e3e3"/><path d="m8.44 144.34 149.37 52.99 149.53-83.3.05-3.73-128.97-48.33z" fill="#027396"/><path d="m1.17 153.55s.79-2.33 4.61-6.08a18.15 18.15 0 0 1 17.22-4.47l134.83 50.4 149.51-83.11-129.46-52.24-163.45 79.28a38.57 38.57 0 0 0 -8.44 7c-4.36 5.32-4.82 9.22-4.82 9.22z" fill="#0081b4"/><path d="m157.82 232-143-56.91a14.82 14.82 0 0 1 -9.34-13.77 14.82 14.82 0 0 1 20-13.87l132.27 49.81z" fill="#fff"/><g fill="none" stroke="#c4c4c4" stroke-miterlimit="10"><path d="m21.71 150.06 130.66 50.81"/><path d="m14.49 153.46 137.88 53.4"/><path d="m11.77 158.36 140.6 54.49"/><path d="m10.68 163.4 141.69 55.44"/><path d="m12.59 170.34 139.78 54.49"/></g><path d="m132.45 222.22-11.7-13.2-11.69 6.23v-12.92-23.68l23.39 8.83v14.85z" fill="#141414" opacity=".08"/><path d="m131.09 218.13-11.7-13.19-11.69 6.22v-12.92-19.88l23.39 8.83v11.05z" fill="#fa504f"/><path d="m160.85 200.98 140.78-77.06" fill="none" stroke="#c4c4c4" stroke-miterlimit="10"/><path d="m161.26 206.15 140.77-77.06" fill="none" stroke="#c4c4c4" stroke-miterlimit="10"/><path d="m161.67 211.32 140.77-77.06" fill="none" stroke="#c4c4c4" stroke-miterlimit="10"/><path d="m162.08 216.5 140.77-77.06" fill="none" stroke="#c4c4c4" stroke-miterlimit="10"/><path d="m162.48 221.67 140.78-77.06" fill="none" stroke="#c4c4c4" stroke-miterlimit="10"/><path d="m68 92c0-.07 0-.16 0-.24v.52c0-.05 0-.14 0-.28z" fill="#191d23" opacity=".55"/><path d="m68.04 34.82h154.73v21.79h-154.73z" fill="#191d23" opacity=".55"/><path d="m226.72 128.81c0 18.69-34.79 36.09-77.71 36.09a152.92 152.92 0 0 1 -24.78-2 112.68 112.68 0 0 1 -31.58-9.74c-13.23-6.61-21.34-15.33-21.34-24.36 0-.16 0-.31 0-.47v-56.74l154.69-10.71v63.46a15.16 15.16 0 0 1 .72 4.47z" fill="#191d23" opacity=".21"/><path d="m223.45 113.83c0 18.69-34.79 36.09-77.71 36.09a152.92 152.92 0 0 1 -24.78-2 112.68 112.68 0 0 1 -31.58-9.74c-13.23-6.6-21.38-15.32-21.38-24.35 0-.16 0-.31 0-.47v-56.75h154.77v52.75a15.16 15.16 0 0 1 .68 4.47z" fill="#292f3a"/><path d="m223.45 113.83c0 18.69-34.79 36.09-77.71 36.09a152.92 152.92 0 0 1 -24.78-2 112.68 112.68 0 0 1 -31.58-9.74c-13.23-6.6-21.38-15.32-21.38-24.35 0-.16 0-.31 0-.47v-16.67c0 6.84 8.25 19.17 21.34 25.71a112.68 112.68 0 0 0 31.66 9.74 152.92 152.92 0 0 0 24.78 2c39.42 0 72-20.67 77-37.56v12.79a15.16 15.16 0 0 1 .67 4.46z" fill="#191d23" opacity=".55"/><path d="m222.77 52.73v18.57l-67.16 31.48a24 24 0 0 1 -15.18.63l-40.4-14-7.72-2.68-24.31-8.42v-25.58z" fill="#191d23" opacity=".55"/><path d="m262.37 48.2-106.75 47.43a24 24 0 0 1 -15.18.63l-40.4-14-7.72-2.68-75.68-26.23c-4.25-1.48-5.06-5.07-.84-6.61l124.38-43.92c4.22-1.54 11-1.58 15-.11l7.29 2.68 99.72 36.69c4.2 1.54 4.29 4.3.18 6.12z" fill="#292f38"/><path d="m262.37 46.57-106.75 47.43a24 24 0 0 1 -15.18.63l-40.4-14-7.72-2.68-75.68-26.23c-4.25-1.48-4.26-3.94 0-5.47l123.54-45.06c4.22-1.54 11-1.58 15-.11l7.29 2.68 99.72 36.69c4.2 1.55 4.29 4.3.18 6.12z" fill="#3a4150"/><path d="m144.11 42c-22.72 3.26-45.46 6.52-67.93 11.23-7.16 1.5-14.59 3.29-20.17 8s-8.58 11.87-9.7 19.06-.52 14.54.09 21.8" fill="none" stroke="#ffbd00" stroke-miterlimit="10" stroke-width="2"/><path d="m52.87 127.83c0 14.79-3.52 18.31-7.87 18.31a5.71 5.71 0 0 1 -3.19-.87c-2.76-1.74-4.68-6.51-4.68-17.45a81.39 81.39 0 0 1 1-13.33l2.47-16 .09-.75h8.61l.08.75 2.54 16.51a82.19 82.19 0 0 1 .95 12.83z" fill="#ffbd00"/><ellipse cx="142.71" cy="43.04" fill="#ffbd00" rx="7.25" ry="4.92"/><path d="m150 43c0 2.72-3.24 4.92-7.25 4.92a8.26 8.26 0 0 1 -6.28-2.48 9.17 9.17 0 0 0 4.92 1.32c4 0 7.25-2.21 7.25-4.93a3.74 3.74 0 0 0 -1-2.44 4.38 4.38 0 0 1 2.36 3.61z" fill="#ff8b00"/><ellipse cx="141.65" cy="41.67" fill="#ffd05a" rx="4.4" ry="3.29"/><ellipse cx="140.9" cy="40.71" fill="#ffdc8d" rx="2.26" ry="1.69"/><path d="m269.83 43.25-7.47 3.32-106.74 47.43a24 24 0 0 1 -15.18.63l-40.4-14c4.58-.14 40.43-1.51 56.27-6.88 10-3.39 19.83-8.34 26.7-16.38s10.24-19.65 6.43-29.51c-3.28-8.46-11.05-14.26-18.77-19-2.74-1.7-5.51-3.32-8.23-5.07l99.72 36.69z" fill="#3a4150" opacity=".14"/><path d="m134.45 16.88-75.45 27.25c-3 1.07-5.92.43-6.6-1.44-.67-1.87 1.19-4.25 4.16-5.32l74.35-26.68c3-1.07 7.06-1 7.73.87.64 1.86-1.22 4.25-4.19 5.32z" fill="#555e6d" opacity=".7"/><path d="m52.87 127.83c0 14.79-3.52 18.31-7.87 18.31a5.71 5.71 0 0 1 -3.19-.87c.47-.51 1-1 1.49-1.48a16 16 0 0 0 4.25-9.23 47.36 47.36 0 0 0 0-10.32l-1.34-17.24c-.21-2.82-.52-5.64-.65-8.47a4.92 4.92 0 0 1 0-.78h3.74l.08.75 2.54 16.5a82.19 82.19 0 0 1 .95 12.83z" fill="#ff8b00" opacity=".8"/><circle cx="45" cy="93.19" fill="#ffbd00" r="7.31"/><path d="m52.32 93.2a7.31 7.31 0 0 1 -13.49 3.91 7.23 7.23 0 0 0 4.08 1.25 7.31 7.31 0 0 0 6.18-11.22 7.3 7.3 0 0 1 3.23 6.06z" fill="#ff8b00" opacity=".8"/><ellipse cx="42.98" cy="91.51" fill="#ffd05a" rx="3.74" ry="3.14" transform="matrix(.61 -.79 .79 .61 -55.75 69.77)"/><path d="m39.4 121.16a47.86 47.86 0 0 0 1.2 12 1.4 1.4 0 0 0 2.71 0 26.21 26.21 0 0 0 .65-6.23 117.69 117.69 0 0 0 -.81-20.08 2.52 2.52 0 0 0 -.85-1.58c-2.41-2-2.27 5.08-2.34 6-.26 3.28-.52 6.58-.56 9.89z" fill="#ffd05a"/><path d="m276.44 100.91c-.28 7.62-2.24 9.72-2.24 9.72-19.77 7.24-112.2 64.3-112.2 64.3.86-6.39.33-11.25-1-14.94-5.19-14-22.59-11.09-23.28-11 56.24-19.78 110.07-65.11 110.07-65.11 15.46-6.26 25.72 2.65 28.15 12.16a17.15 17.15 0 0 1 .5 4.87z" fill="#e3e3e3"/><path d="m276.52 116.48s2-2.1 2.24-9.72a17.15 17.15 0 0 0 -.55-4.86c-3.23 1.34-11.93 6.78-13.17 7.44l-14.63 7.87-52.23 28.07-26.26 14.12a37.42 37.42 0 0 0 -6 3.55 21.58 21.58 0 0 0 -10.19-2.41c-8.95 0-16.2 4.85-16.2 10.82s7.25 10.82 16.2 10.82a21.79 21.79 0 0 0 9.71-2.17v.06l.51-.31a15.69 15.69 0 0 0 1.42-.87c13.15-8.12 91.07-55.79 109.15-62.41z" fill="#191d23" opacity=".21"/><path d="m276.44 100.91c-.28 7.62-2.24 9.72-2.24 9.72-19.77 7.24-112.2 64.3-112.2 64.3.86-6.39.33-11.25-1-14.94.12-.19.25-.37.38-.56 2.09-3 5.06-4.17 8.26-5.88l26.26-14.12 52.23-28.07 14.63-7.87c1.24-.66 9.94-6.1 13.17-7.44a17.15 17.15 0 0 1 .51 4.86z" fill="#d6d6d6"/><path d="m169.21 163.07c0 8.77-9.66 15.86-21.57 15.86s-21.58-7.1-21.58-15.86 9.66-15.86 21.58-15.86a28.17 28.17 0 0 1 9.3 1.54c7.13 2.52 12.11 7.83 12.26 14 .01.12.01.25.01.32z" fill="#c4c4c4"/><path d="m154 170.89 3.55-8.72-2.73-5-9.39-3 11.48-5.39c7.13 2.52 12.11 7.83 12.26 14z" fill="#b2b2b2"/><path d="m190.33 123.83s18.52 1.53 17 23.62l11.35-6.59s-.88-21.37-18.18-23.16z" fill="#ef3a3a"/><path d="m146.37 160 6.92-3.68 3.55 4.29-9.13 5.24.34-3.68z" fill="#b2b2b2"/><path d="m156 147.23a27 27 0 0 0 -15.22 1.6 20 20 0 0 0 -8.05 5.4 9.49 9.49 0 0 0 2.69 15.19 19.76 19.76 0 0 0 7.76 2.17 18.26 18.26 0 0 0 8.42-.82 9.19 9.19 0 0 0 5.7-5.92 7.81 7.81 0 0 0 -1.33-6.49 9 9 0 0 0 -5.73-3.43 7.64 7.64 0 0 0 -5.72 1.2 5.4 5.4 0 0 0 -2.21 5.24 4.2 4.2 0 0 0 4.32 3.36 2.77 2.77 0 0 0 1.8-.88 1.88 1.88 0 0 0 .36-1.92 1.43 1.43 0 0 0 -1.68-.82" fill="none" stroke="#e3e3e3" stroke-linecap="round" stroke-linejoin="round" stroke-width="3"/><ellipse cx="202.24" cy="124.44" fill="#ea3f3f" rx="13.34" ry="7.82"/><ellipse cx="202.24" cy="123.32" fill="#fa504f" rx="13.34" ry="7.82"/><ellipse cx="201.97" cy="122.5" fill="#ffbe00" rx="7.67" ry="4.49"/><ellipse cx="200.53" cy="121.52" fill="#ffe33b" rx="4.52" ry="2.47"/><path d="m209.64 122.5c0 2.48-3.43 4.49-7.67 4.49a10.23 10.23 0 0 1 -6.1-1.77 11.67 11.67 0 0 0 3.86.62c4.24 0 7.67-2 7.67-4.49a3.53 3.53 0 0 0 -1.56-2.73c2.27.77 3.8 2.22 3.8 3.88z" fill="#ffb000"/><path d="m252.14 138.63a4.39 4.39 0 0 1 -.67.3l-1 .53-50.12 27.62-.24-.43-2-3.63-5.85-10.61-.31-.57 49.58-27.32 1.86-1c2.69-1.56 6.82.57 9.23 4.75a13.37 13.37 0 0 1 1.27 3c.91 3.19.3 6.18-1.75 7.36z" fill="#ffbe00"/><path d="m252.14 138.63a4.39 4.39 0 0 1 -.67.3l-1 .53-50.12 27.62-.24-.43-2-3.63 2.86-3.41 52.93-28.37c.9 3.22.29 6.21-1.76 7.39z" fill="#ffbe00" opacity=".42"/><path d="m200.37 167.1-3.63.38-8.66.89-2.24.23-1.26.13-1.86.19a.83.83 0 0 1 -.78-1.28l1.09-1.72.6-.94 1.09-1.72 4.64-7.3 2.61-4.11c2.68-1.07 6.48 1 8.75 5s2.18 8.6-.35 10.25z" fill="#fcc9ac"/><path d="m188.06 168.36-2.24.23-1.26.13-1.86.19a.83.83 0 0 1 -.78-1.28l1.09-1.72.6-.94 1.09-1.72c1.96.46 3.01 2.23 3.36 5.11z" fill="#384250"/><path d="m218.28 139.81c5.19-2.9 10.42-5.83 16.09-7.59.77-.24 1.75-.4 2.27.23a1.42 1.42 0 0 1 .05 1.53 3.83 3.83 0 0 1 -1.11 1.16 62.75 62.75 0 0 1 -7.78 4.86c-3.4 1.91-6.81 3.82-10.3 5.56a73 73 0 0 1 -10.95 4.52 21 21 0 0 1 -2.65.92.63.63 0 0 1 -.57-.11c-.48-.52.3-2 .59-2.42a5.06 5.06 0 0 1 1.93-1.79c1.76-.92 3.49-1.88 5.22-2.86l2.85-1.61z" fill="#ffeb5a" opacity=".34"/></svg>