<svg viewBox="0 0 630.27 527.87" xmlns="http://www.w3.org/2000/svg"><path d="m270.73 390.6c-72.73 25.4-152.47-13.14-177.84-85.83s13.11-152.47 85.84-177.83 152.47 13.14 177.83 85.83-13.14 152.47-85.83 177.83z" fill="#f0f0fa"/><path d="m167.22 94a174.54 174.54 0 1 0 222.3 107.27 174.54 174.54 0 0 0 -222.3-107.27zm103.51 296.6c-72.73 25.4-152.47-13.14-177.84-85.83s13.11-152.47 85.84-177.83 152.47 13.14 177.83 85.83-13.14 152.47-85.83 177.83z" fill="#00a5d8"/><path d="m603.93 407.13-166.85-80.89a198.31 198.31 0 0 1 -24.28 50.76l166.68 80.8a28.12 28.12 0 1 0 24.44-50.64z" fill="#00a5d8"/><path d="m608.69 399.22-166.84-80.89a10 10 0 0 0 -14 6c-1.69 5.37-3.64 10.65-5.79 15.83l-25.48-12.3a183.81 183.81 0 0 0 2.77-128.81c-33.53-96.09-139-147-235.08-113.46s-147 139-113.46 235.08 139 147 235.08 113.46a183.88 183.88 0 0 0 102.27-88l25.22 12.17c-2.65 4.85-5.5 9.6-8.57 14.22a10 10 0 0 0 4 14.6l166.69 80.81a38.15 38.15 0 0 0 33.18-68.72zm-538.88-85.13c-29.89-85.64 15.48-179.63 101.11-209.51s179.63 15.48 209.51 101.12-15.43 179.62-101.12 209.51-179.62-15.48-209.5-101.12zm538.57 127.34a18.08 18.08 0 0 1 -24.12 8.43l-156.6-75.91a208.49 208.49 0 0 0 15.61-32.61l156.69 76a18.08 18.08 0 0 1 8.42 24.14z" fill="#292f3a"/><path d="m143.3 228.46v.24z" fill="#191d23" opacity=".55"/><path d="m83.69 282.73 149.94 52.95 148.97-83.26-128.92-52.07z" fill="#f45a16"/><path d="m233.93 372.45-149.56-57.19c-7.5-2.87-9.69-11.79-9-19 .36-3.69 1.17-7.33 3.35-10.4a14.89 14.89 0 0 1 8.28-5.94 12.77 12.77 0 0 1 8.36.74l132.27 58.72z" fill="#027396"/><path d="m83.69 314.11 149.94 59.21 148.97-85.96v-8.58l-128.92-42.21z" fill="#027396"/><path d="m233.07 368.92 149.53-85.73v-32.29l-149.53 83.28z" fill="#e3e3e3"/><path d="m83.69 281.23 149.37 52.98 149.54-83.29.05-3.73-128.97-48.34z" fill="#027396"/><path d="m76.43 290.43s.79-2.33 4.61-6.08a18.15 18.15 0 0 1 17.22-4.49l134.83 50.4 149.51-83.11-129.47-52.21-163.45 79.28a38.57 38.57 0 0 0 -8.44 7c-4.36 5.32-4.81 9.21-4.81 9.21z" fill="#0081b4"/><path d="m233.07 368.92-142.97-56.92a14.82 14.82 0 0 1 -9.34-13.77 14.82 14.82 0 0 1 20-13.87l132.27 49.81z" fill="#fff"/><path d="m96.97 286.95 130.66 50.8" fill="none" stroke="#c4c4c4" stroke-miterlimit="10"/><path d="m89.75 290.35 137.88 53.39" fill="none" stroke="#c4c4c4" stroke-miterlimit="10"/><path d="m87.03 295.25 140.6 54.48" fill="none" stroke="#c4c4c4" stroke-miterlimit="10"/><path d="m85.94 300.29 141.69 55.43" fill="none" stroke="#c4c4c4" stroke-miterlimit="10"/><path d="m87.84 307.23 139.79 54.49" fill="none" stroke="#c4c4c4" stroke-miterlimit="10"/><path d="m207.71 359.1-11.7-13.19-11.7 6.22v-12.91-23.68l23.4 8.83v14.85z" fill="#141414" opacity=".08"/><path d="m206.34 355.02-11.69-13.2-11.7 6.23v-12.92-19.89l23.39 8.84v11.05z" fill="#fa504f"/><path d="m236.11 337.86 140.77-77.05" fill="none" stroke="#c4c4c4" stroke-miterlimit="10"/><path d="m236.52 343.04 140.77-77.06" fill="none" stroke="#c4c4c4" stroke-miterlimit="10"/><path d="m236.92 348.21 140.78-77.06" fill="none" stroke="#c4c4c4" stroke-miterlimit="10"/><path d="m237.33 353.39 140.78-77.06" fill="none" stroke="#c4c4c4" stroke-miterlimit="10"/><path d="m237.74 358.56 140.77-77.06" fill="none" stroke="#c4c4c4" stroke-miterlimit="10"/><path d="m143.29 228.93c0-.07 0-.16 0-.24v.52c0-.09 0-.21 0-.28z" fill="#191d23" opacity=".55"/><path d="m143.3 171.71h154.73v21.79h-154.73z" fill="#191d23" opacity=".55"/><path d="m302 265.7c0 18.69-34.79 36.09-77.71 36.09a152.92 152.92 0 0 1 -24.78-2 112.68 112.68 0 0 1 -31.58-9.74c-13.23-6.61-21.34-15.33-21.34-24.36 0-.16 0-.31 0-.47v-56.75l154.73-10.7v63.46a15.16 15.16 0 0 1 .68 4.47z" fill="#191d23" opacity=".21"/><path d="m298.71 250.72c0 18.69-34.79 36.09-77.71 36.09a152.92 152.92 0 0 1 -24.78-2 112.68 112.68 0 0 1 -31.58-9.74c-13.23-6.61-21.34-15.33-21.34-24.36 0-.16 0-.31 0-.47v-56.74h154.7v52.75a15.16 15.16 0 0 1 .71 4.47z" fill="#292f3a"/><path d="m298.71 250.72c0 18.69-34.79 36.09-77.71 36.09a152.92 152.92 0 0 1 -24.78-2 112.68 112.68 0 0 1 -31.58-9.74c-13.23-6.61-21.34-15.33-21.34-24.36 0-.16 0-.31 0-.47v-16.66c0 6.84 8.25 19.17 21.34 25.71a112.68 112.68 0 0 0 31.57 9.71 152.92 152.92 0 0 0 24.79 2c39.42 0 72-20.67 77-37.56v12.79a15.16 15.16 0 0 1 .71 4.49z" fill="#191d23" opacity=".55"/><path d="m298 189.62v18.57l-67.16 31.48a24 24 0 0 1 -15.18.63l-40.4-14-7.72-2.68-24.24-8.42v-25.58z" fill="#191d23" opacity=".55"/><path d="m337.62 185.09-106.75 47.43a24 24 0 0 1 -15.18.63l-40.4-14-7.72-2.68-75.68-26.23c-4.25-1.48-5.06-5.07-.84-6.61l124.38-43.92c4.22-1.54 11-1.58 15-.11l7.29 2.68 99.7 36.72c4.22 1.51 4.31 4.27.2 6.09z" fill="#292f38"/><path d="m337.62 183.46-106.75 47.43a24 24 0 0 1 -15.18.63l-40.4-14-7.72-2.68-75.68-26.23c-4.25-1.48-4.26-3.94 0-5.47l123.58-45.06c4.22-1.54 11-1.58 15-.11l7.29 2.68 99.72 36.69c4.16 1.54 4.25 4.3.14 6.12z" fill="#3a4150"/><path d="m219.36 178.85c-22.72 3.26-45.46 6.52-67.93 11.23-7.16 1.5-14.59 3.29-20.17 8s-8.58 11.87-9.7 19.06-.52 14.54.09 21.8" fill="none" stroke="#ffbd00" stroke-miterlimit="10" stroke-width="2"/><path d="m128.13 264.72c0 14.79-3.52 18.31-7.87 18.31a5.71 5.71 0 0 1 -3.19-.87c-2.76-1.74-4.68-6.51-4.68-17.45a81.39 81.39 0 0 1 1-13.33l2.47-16 .09-.75h8.56l.08.75 2.54 16.49a82.19 82.19 0 0 1 1 12.85z" fill="#ffbd00"/><ellipse cx="217.97" cy="179.93" fill="#ffbd00" rx="7.25" ry="4.92"/><path d="m225.21 179.93c0 2.72-3.24 4.92-7.25 4.92a8.26 8.26 0 0 1 -6.28-2.48 9.17 9.17 0 0 0 4.92 1.32c4 0 7.25-2.21 7.25-4.93a3.74 3.74 0 0 0 -1-2.44 4.38 4.38 0 0 1 2.36 3.61z" fill="#ff8b00"/><ellipse cx="216.9" cy="178.56" fill="#ffd05a" rx="4.4" ry="3.29"/><ellipse cx="216.15" cy="177.6" fill="#ffdc8d" rx="2.26" ry="1.69"/><path d="m345.09 180.14-7.47 3.32-106.75 47.43a24 24 0 0 1 -15.18.63l-40.4-14c4.58-.14 40.43-1.51 56.27-6.88 10-3.39 19.83-8.34 26.7-16.38s10.24-19.65 6.43-29.51c-3.28-8.46-11.05-14.26-18.77-19-2.74-1.7-5.51-3.32-8.23-5.07l99.72 36.69z" fill="#3a4150" opacity=".14"/><path d="m209.71 153.77-75.49 27.23c-3 1.07-5.92.43-6.6-1.44-.67-1.87 1.19-4.25 4.16-5.32l74.35-26.68c3-1.07 7.06-1 7.73.87.68 1.88-1.18 4.27-4.15 5.34z" fill="#555e6d" opacity=".7"/><path d="m128.13 264.72c0 14.79-3.52 18.31-7.87 18.31a5.71 5.71 0 0 1 -3.19-.87c.47-.51 1-1 1.49-1.48a16 16 0 0 0 4.25-9.23 47.36 47.36 0 0 0 0-10.32l-1.32-17.26c-.21-2.82-.52-5.64-.65-8.47a4.92 4.92 0 0 1 0-.78h3.72l.08.75 2.54 16.49a82.19 82.19 0 0 1 .95 12.86z" fill="#ff8b00" opacity=".8"/><circle cx="120.26" cy="230.08" fill="#ffbd00" r="7.31"/><path d="m127.57 230.08a7.31 7.31 0 0 1 -13.49 3.92 7.23 7.23 0 0 0 4.08 1.25 7.31 7.31 0 0 0 6.18-11.25 7.3 7.3 0 0 1 3.23 6.08z" fill="#ff8b00" opacity=".8"/><ellipse cx="118.24" cy="228.4" fill="#ffd05a" rx="3.74" ry="3.14" transform="matrix(.61 -.79 .79 .61 -134.88 182.83)"/><path d="m114.66 258a47.86 47.86 0 0 0 1.2 12 1.4 1.4 0 0 0 2.71 0 26.21 26.21 0 0 0 .65-6.23 117.69 117.69 0 0 0 -.81-20.08 2.52 2.52 0 0 0 -.85-1.58c-2.41-2-2.27 5.08-2.34 6-.22 3.33-.52 6.63-.56 9.89z" fill="#ffd05a"/><path d="m351.7 237.8c-.28 7.62-2.24 9.72-2.24 9.72-19.78 7.24-112.22 64.3-112.22 64.3.86-6.39.33-11.25-1-14.94-5.19-14-22.59-11.09-23.28-11 56.22-19.76 110.04-65.1 110.04-65.1 15.46-6.26 25.72 2.65 28.15 12.16a17.15 17.15 0 0 1 .55 4.86z" fill="#e3e3e3"/><path d="m351.77 253.37s2-2.1 2.24-9.72a17.15 17.15 0 0 0 -.55-4.86c-3.23 1.34-11.93 6.78-13.17 7.44l-14.63 7.87-52.23 28.07-26.26 14.12a37.42 37.42 0 0 0 -6 3.55 21.58 21.58 0 0 0 -10.19-2.41c-8.95 0-16.2 4.85-16.2 10.82s7.25 10.82 16.2 10.82a21.79 21.79 0 0 0 9.71-2.17v.1l.51-.31a15.69 15.69 0 0 0 1.42-.87c13.16-8.16 91.07-55.82 109.15-62.45z" fill="#191d23" opacity=".21"/><path d="m351.7 237.8c-.28 7.62-2.24 9.72-2.24 9.72-19.78 7.24-112.22 64.3-112.22 64.3.86-6.39.33-11.25-1-14.94.12-.19.25-.37.38-.56 2.09-3 5.06-4.17 8.26-5.88l26.26-14.12 52.23-28.07 14.63-7.87c1.24-.66 9.94-6.1 13.17-7.44a17.15 17.15 0 0 1 .53 4.86z" fill="#d6d6d6"/><path d="m244.47 300c0 8.77-9.66 15.86-21.57 15.86s-21.58-7.1-21.58-15.86 9.68-15.9 21.57-15.9a28.17 28.17 0 0 1 9.3 1.54c7.13 2.52 12.11 7.83 12.26 14 .02.12.02.22.02.36z" fill="#c4c4c4"/><path d="m229.3 307.78 3.55-8.72-2.73-5-9.39-3 11.48-5.39c7.13 2.52 12.11 7.83 12.26 14z" fill="#b2b2b2"/><path d="m265.58 260.72s18.52 1.53 17 23.62l11.42-6.58s-.88-21.37-18.18-23.16z" fill="#ef3a3a"/><path d="m221.62 296.89 6.93-3.68 3.54 4.29-9.12 5.24.34-3.68z" fill="#b2b2b2"/><path d="m231.24 284.12a27 27 0 0 0 -15.22 1.6 20 20 0 0 0 -8.05 5.4 9.49 9.49 0 0 0 2.69 15.19 19.76 19.76 0 0 0 7.76 2.17 18.26 18.26 0 0 0 8.42-.82 9.19 9.19 0 0 0 5.7-5.92 7.81 7.81 0 0 0 -1.33-6.49 9 9 0 0 0 -5.73-3.43 7.64 7.64 0 0 0 -5.72 1.2 5.4 5.4 0 0 0 -2.21 5.24 4.2 4.2 0 0 0 4.32 3.36 2.77 2.77 0 0 0 1.8-.88 1.88 1.88 0 0 0 .36-1.92 1.43 1.43 0 0 0 -1.68-.82" fill="none" stroke="#e3e3e3" stroke-linecap="round" stroke-linejoin="round" stroke-width="3"/><ellipse cx="277.49" cy="261.33" fill="#ea3f3f" rx="13.34" ry="7.82"/><ellipse cx="277.49" cy="260.21" fill="#fa504f" rx="13.34" ry="7.82"/><ellipse cx="277.22" cy="259.39" fill="#ffbe00" rx="7.67" ry="4.49"/><ellipse cx="275.78" cy="258.4" fill="#ffe33b" rx="4.52" ry="2.47"/><path d="m284.89 259.39c0 2.48-3.43 4.49-7.67 4.49a10.23 10.23 0 0 1 -6.1-1.77 11.67 11.67 0 0 0 3.86.62c4.24 0 7.67-2 7.67-4.49a3.53 3.53 0 0 0 -1.56-2.73c2.28.77 3.8 2.22 3.8 3.88z" fill="#ffb000"/><path d="m327.39 275.52a4.39 4.39 0 0 1 -.67.3l-1 .53-50.1 27.65-.24-.43-2-3.63-5.85-10.61-.31-.57 49.58-27.32 1.86-1c2.69-1.56 6.82.57 9.23 4.75a13.37 13.37 0 0 1 1.27 3c.9 3.16.28 6.15-1.77 7.33z" fill="#ffbe00"/><path d="m327.39 275.52a4.39 4.39 0 0 1 -.67.3l-1 .53-50.1 27.65-.24-.43-2-3.63 2.86-3.41 52.93-28.37c.89 3.19.27 6.18-1.78 7.36z" fill="#ffbe00" opacity=".42"/><path d="m275.62 304-3.63.38-8.66.89-2.24.23-1.26.13-1.86.19a.83.83 0 0 1 -.78-1.28l1.09-1.72.6-.94 1.09-1.72 4.64-7.3 2.61-4.11c2.68-1.07 6.48 1 8.75 5s2.18 8.59-.35 10.25z" fill="#fcc9ac"/><path d="m263.32 305.25-2.24.23-1.26.13-1.86.19a.83.83 0 0 1 -.78-1.28l1.09-1.72.6-.94 1.09-1.72c1.96.46 3.04 2.23 3.36 5.11z" fill="#384250"/><path d="m293.54 276.7c5.19-2.9 10.42-5.83 16.09-7.59.77-.24 1.75-.4 2.27.23a1.42 1.42 0 0 1 .05 1.53 3.83 3.83 0 0 1 -1.11 1.16 62.75 62.75 0 0 1 -7.79 4.89c-3.4 1.91-6.81 3.82-10.3 5.56a73 73 0 0 1 -10.94 4.52 21 21 0 0 1 -2.65.92.63.63 0 0 1 -.57-.11c-.48-.52.3-2 .59-2.42a5.06 5.06 0 0 1 1.93-1.79c1.76-.92 3.49-1.88 5.22-2.86l2.85-1.61z" fill="#ffeb5a" opacity=".34"/><path d="m56.26 164.32c0-2.76 153.41-5 343-5" fill="none"/><g fill="#292f3a"><text transform="matrix(.54 -.84 .84 .54 53.37 163.19)"/><text transform="matrix(.63876782 -.76939956 .76939956 .63876782 66.28 143.12)"/><text transform="matrix(.73 -.69 .69 .73 81.48 124.68)"/><text transform="matrix(.80156698 -.59790498 .59790498 .80156698 98.73 108.18)"/><text font-family="MSReferenceSansSerif, MS Reference Sans Serif" font-size="72" transform="matrix(.89 -.45 .45 .89 116.68 93.23)">S</text><text font-family="MSReferenceSansSerif, MS Reference Sans Serif" font-size="72" transform="matrix(.97191995 -.23531175 .23531175 .97191995 158.36 72.43)">e</text><text font-family="MSReferenceSansSerif, MS Reference Sans Serif" font-size="72" transform="matrix(.99980895 -.01954644 .01954644 .99980895 197.56 62.62)">a</text><text font-family="MSReferenceSansSerif, MS Reference Sans Serif" font-size="72" transform="matrix(.98573286 .16831734 -.16831734 .98573286 238.51 62.2)">r</text><text font-family="MSReferenceSansSerif, MS Reference Sans Serif" font-size="72" transform="matrix(.94258322 .33397138 -.33397138 .94258322 266.9 66.59)">c</text><text font-family="MSReferenceSansSerif, MS Reference Sans Serif" font-size="72" transform="matrix(.86 .52 -.52 .86 300.29 77.76)">h</text><text transform="matrix(.81 .59 -.59 .81 99.72 466.22)"/><text font-family="MSReferenceSansSerif, MS Reference Sans Serif" font-size="72" transform="matrix(.91219165 .40976383 -.40976383 .91219165 125.54 485.1)">F</text><text font-family="MSReferenceSansSerif, MS Reference Sans Serif" font-size="72" transform="matrix(.98 .18 -.18 .98 167.48 503.5)">a</text><text font-family="MSReferenceSansSerif, MS Reference Sans Serif" font-size="72" transform="matrix(.99709279 -.07619696 .07619696 .99709279 218.37 511.28)">c</text><text font-family="MSReferenceSansSerif, MS Reference Sans Serif" font-size="72" transform="matrix(.94362777 -.33100852 .33100852 .94362777 264.24 507.17)">u</text><text font-family="MSReferenceSansSerif, MS Reference Sans Serif" font-size="72" transform="matrix(.86 -.51 .51 .86 312.58 488.14)">l</text></g></svg>