<svg viewBox="0 0 352.43 331.59" xmlns="http://www.w3.org/2000/svg"><path d="m14.2 194.15s-4.2-2.65-4.63-5.84c0 0-4.08.22-5 1.54 0 0 1.87 5.29 4.08 6.28.04.01 5 .34 5.55-1.98z" fill="#ed7d2b"/><path d="m133.34 154.77a13.41 13.41 0 0 0 -2.29-2.45c-1.22-.94-2.51-2.71-2.13-3.28a42.87 42.87 0 0 1 4-3.26l2 4.83z" fill="#ffb27d"/><path d="m164.97 98.38 31.91-12.65 17.86 17.21-30.34 11.84z" fill="#233862"/><path d="m147.55 166.57-12.71-16.32-1.51 4.51s13 29.6 19 26.85c2.76-1.28-4.78-15.04-4.78-15.04z" fill="#ffb27d"/><path d="m187.28 113.35s-6.2 3.65-2.4 10.73c0 0-5.43-1-6.6-2.61a4.26 4.26 0 0 0 .34 1s-6.36-.81-7.53-3.18c-2.42-4.89 3.45-4.58 6-9.66 3.31-6.63 8.51-11.84 15.86-8.18 0 0 10.28-.56 5.63 12.61s-.26 14.33-.26 14.33a6.47 6.47 0 0 1 -2 .12s-.77-.56-.82-1.08a3.17 3.17 0 0 0 .13 1.09s-4.86-.81-6.75-3.22-3.02-9.35-1.6-11.95z" fill="#c94c43"/><path d="m178.32 134.55s-.05 0 0 0z" fill="#ffb27d"/><path d="m193.39 130.21c.18 1.63.4 3.1.5 3.8.07.5 1.2 9.41-.87 9.5s-7.18 10.64-9.49 10.56c-2.58-.1-4.87-19.51-5.21-19.51.66-.29 2.67-6.67 3.31-9.11.77-3 1.38-6.14 1.38-6.14l10.48.66h.62a36.48 36.48 0 0 0 -.85 4c0 .17 0 .34-.07.5a27.18 27.18 0 0 0 .2 5.74z" fill="#ffb27d"/><path d="m181.57 118.25s-1.7-5.39-1.35-9.52c.25-2.95 4.95-11.31 15-7 0 0 2.47-.59 4.82 2.1 1.87 2.14 4.28 6.33-1.81 14.47l-1.77 2.82z" fill="#c94c43"/><path d="m193.39 130.21c-7.33-2.14-10.39-10.61-10.39-10.61 3.1.09 7.14 2.24 10.31 4.43 0 .17 0 .34-.07.5a27.18 27.18 0 0 0 .15 5.68z" fill="#ed975d"/><path d="m193.91 127.24s-13.24-3.27-11.08-11.49 1.91-14.17 10.46-12.43 9.36 5.31 9.3 8.23-5.18 16.33-8.68 15.69z" fill="#ffb27d"/><path d="m199.35 104.71s-6.16 8.68-12.08 8.64-7.93-2.16-7.93-2.16a16.23 16.23 0 0 0 7.58-7.91s10.92-3.87 12.43 1.43z" fill="#c94c43"/><path d="m198.25 105.26s2.13 2.86 2.23 5.13-.74 6.65.55 6.83c0 0 4.45-5.83 2.38-10.34-2.2-4.78-5.16-1.62-5.16-1.62z" fill="#c94c43"/><path d="m198.67 105.72s-5.24 9.41-13.09 10.79c0 0 8.63-4.35 11-10.85s2.09.06 2.09.06z" fill="#c94c43"/><path d="m191.84 122s.17 1.25 1 1.55a11.56 11.56 0 0 0 3.13.7 10.62 10.62 0 0 0 1-1.11s-3.36-1.31-5.13-1.14z" fill="#fff"/><path d="m186.9 247.63-.5 2.09c-1 4.15-1.93 8-2.51 11.21-.76 4.19-.94 7.31.06 8.61 2.58 3.38 1.92 21.46 1.07 34.48-.5 7.75-1.07 13.7-1.07 13.7l-4.68 4.82s-1.48-7.69-3.35-17c-2.51-12.54-5.73-28-7-31.84-1-3-2.47-15.86-3.76-29l-.19-2c-.22-2.29-.44-4.58-.64-6.81a116.08 116.08 0 0 1 .52-24.1 28.31 28.31 0 0 1 13.93-5.69c4.62-.4 9 1.07 11.11 6.74 3.11 8.3-.05 22.56-2.99 34.79z" fill="#ffb27d"/><path d="m186.9 247.63c-6.41-4.63-15.43-12.87-18.71-26.38-.63-6.72 4.67-13.1 10.58-15.11 4.62-.4 9 1.07 11.11 6.74 3.12 8.26-.04 22.52-2.98 34.75z" fill="#ed975d"/><path d="m210.28 166 31.51 8.14v3.68s-31.36-.37-33.38-3.86 1.87-7.96 1.87-7.96z" fill="#ffb27d"/><path d="m241.8 287.32-1.47 6.08s-6.51-3.36-14.77-7.71c-12.88-6.78-30-16-33.37-18.53-2.21-1.7-5.14-10.92-7.85-21.36-4-15.56-7.6-33.8-7.6-33.8s6-23 22-8.92c9.57 8.42 8.08 24.64 7 37.25-.7 8.46-1.2 15.31 2 17.08 4.56 2.54 15.6 11.84 23.41 20.94a53.53 53.53 0 0 1 6.7 9.39z" fill="#ffb27d"/><path d="m241.8 174.18s5.78-2.85 8.08-3.12 6.16-.37 6.16 0-4.14 2.94-5.24 3.12-3.22 1.75-2.57 1.93 4-.6 4.09 0-2.07 1-2.44 1.42-1.65 1-3.72.74-4.36-.41-4.36-.41z" fill="#ffb27d"/><path d="m241.8 260.82c-20.35 29.3-72.85 32.58-72.85 32.58-8.52-31.11-5-109.77-3.08-139-.12-5.11.08-9.42.92-11.08 1.31-2.59 8.4-7.08 11-9.31a4.4 4.4 0 0 1 1.1-.28c.38 1.34 5.11 17.39 5.58 17.06s8.45-15.58 9.29-17.38l1.61.06c1.41.07 9 1.59 9.64 2.81.22.43 2.4 6.2 5.14 13.85 5.13 14.35 12.66 11.65 15.65 15.9 1.88 2.67 1.07 7.65-2.42 12-.3.37-.61.73-.94 1.08-2.65 2.81-6.25 4.47-12.11 3.61a16.64 16.64 0 0 1 -6.81-3.7c5.72 21.6 38.28 81.8 38.28 81.8z" fill="#1c468a"/><path d="m179.18 133-2.76 1.58s7.52 21.28 7.89 21.18 11.69-22.23 11.69-22.23l-2.3-1-9.27 18.22z" fill="#f99746"/><path d="m202.64 105.54s-9.64-5.41-25.57 4.1l.69-2.61a8.67 8.67 0 0 1 4.29-5.46 23.53 23.53 0 0 1 11.4-2.49 9.75 9.75 0 0 1 8.6 5.31z" fill="#1c468a"/><path d="m154.59 112.48-.24-.8c8.54-2.53 10.37-11.4 10.68-13.47a.67.67 0 0 1 .49-.55.37.37 0 0 1 .46.42c-.39 2.4-2.49 11.76-11.39 14.4z" fill="#efcbab"/><path d="m154.35 111.67h-1.13l.43 1.38.94-.57z" fill="#d8a987"/><path d="m153.21 111.68s-1.57.44-1.9 0c0 0 0 1.33.52 1.67a4.36 4.36 0 0 0 1.81-.3z" fill="#efcbab"/><path d="m179.75 134.89s2.52 4.63 12.55.41l-7.88 15.48z" fill="#fff"/><path d="m176.43 134.55s-1.31 44-12.17 52.58a6.58 6.58 0 0 1 -2.44 1.25c-5.49 1.4-9.48-1.87-12.17-6.4-3.75-6.29-5-15-4.38-17 1.21-3.83 4 2.94 9.86 1.08s7.44-25.47 11.53-28.91c1.06-.91 9.77-2.6 9.77-2.6z" fill="#1c468a"/><path d="m123.41 165.9a31.72 31.72 0 0 1 -3.2-2 13.29 13.29 0 0 1 -1.93-1.68 4 4 0 0 1 -.67-1s13.26-16 14.32-17.84 11.07-17.38 11.07-17.38a25.35 25.35 0 0 1 2.7 1.53c.55.36 1.13.76 1.69 1.21a10.52 10.52 0 0 1 2.61 2.87s-14.57 14.76-15.6 16.89-10.99 17.4-10.99 17.4z" fill="#efcbab"/><path d="m120.22 163.88a13.29 13.29 0 0 1 -1.93-1.68 4 4 0 0 1 -.67-1s13.26-16 14.32-17.84 11.06-17.36 11.06-17.36a25.35 25.35 0 0 1 2.7 1.53c.55.36 1.13.76 1.69 1.21-4.09 4.17-15.13 15.56-16.08 17.51s-8.11 13.05-11.09 17.63z" fill="#ddb08e"/><path d="m133.86 140.28s-3.91 3.8-4.36 6.38l4.09 3.28s3.58-3.51 4.71-6.1z" fill="#c94c43"/><path d="m134.85 150.26s.28-2.58-.31-3.48-.65-3.41-1.2-3.14-.2 2.31-.55 3.3-.86 5.59.55 6.46 1.51-3.14 1.51-3.14z" fill="#ffb27d"/><path d="m130.88 143.79s-1.63-.25-2.22.83-1.33 2.84-.21 3.53 2.43-4.36 2.43-4.36z" fill="#ffb27d"/><path d="m185 304c-.5 7.75-1.07 13.7-1.07 13.7l-4.68 4.82s-1.48-7.69-3.35-17c.01.01 5.26 1.83 9.1-1.52z" fill="#fff"/><path d="m188.65 324.69-2.52 1.37c-.92.32-1.68.42-2.6.77a5.38 5.38 0 0 0 -2.45 1.79c-.71 2.9-1.72 2.71-1.72 2.71l-10.14.1c-.48-.24.33-2.29.72-2.67 1-.94 3.83-.47 4.88-3.44.59-1.67 3.5-6.86 3.5-6.86.1-.05.64-.16 3.57.45 1.51.31 2.14-2.76 2.14-2.76a2.87 2.87 0 0 1 1 .47 3 3 0 0 1 1.12 1.52 12.14 12.14 0 0 0 2.92 3.56c.65.6 1.14 1 1.14 1s.46.55-1.56 1.99z" fill="#233862"/><path d="m241.8 287.32-1.47 6.08s-6.51-3.36-14.77-7.71a13.83 13.83 0 0 0 5.58-7.34 53.53 53.53 0 0 1 6.7 9.39z" fill="#fff"/><path d="m250.22 289.68a2.66 2.66 0 0 1 -1.65-1.73c-.38-.92-.5-1.67-.85-2.58l-1.44-2.48c-1.51-2-2-1.52-2-1.52s-.39.5-1 1.17a12.15 12.15 0 0 1 -3.48 3 3 3 0 0 0 -1.49 1.17 2.87 2.87 0 0 0 -.44 1s3.09.54 2.82 2.06c-.52 2.95-.4 3.48-.35 3.58s5.27 2.76 7 3.3a13.15 13.15 0 0 1 5.54 3.93 1.74 1.74 0 0 0 1.48.46c.79-.12 1.82-.38 2-.86z" fill="#233862"/><circle cx="183.86" cy="164.38" fill="#233862" r="1.52"/><circle cx="183.86" cy="175.68" fill="#233862" r="1.52"/><path d="m223.33 178c-.3.37-.61.73-.94 1.08-2.65 2.81-6.25 4.47-12.11 3.61a16.64 16.64 0 0 1 -6.81-3.7s-4.83-13.19-4.18-15.05 10 12.6 17.67 13.28a56.55 56.55 0 0 1 6.37.78z" fill="#233862"/><path d="m166.56 167.74-2.3 19.4a6.58 6.58 0 0 1 -2.44 1.25c-5.49 1.4-9.48-1.87-12.17-6.4 2.81.39 9.64 1 11.13-2 1.87-3.74 5.78-12.25 5.78-12.25z" fill="#233862"/><path d="m31.33 61.07s2.73-2.47 3.4-4.2.59-4.63.59-6.52a.76.76 0 0 0 -1 .61c-.2.9-.57 3-1.33 3.39s-2.46.37-2.85 2.51a6 6 0 0 0 1.19 4.21z" fill="#b56f40"/><path d="m25.07 61.49s-2.49-5.09-2-6.75 8.14-3.47 9.15-2.69 0 10.29 0 10.29z" fill="#b56f40"/><path d="m105.47 214.86s-.37 4.2 1.1 6.21 2.25 3.84 2.74 2.92-.79-4.08-.37-4 1.61 3.78 2.21 4.93 1.88 3 2.73 2.07-.79-9.56-1.46-10.66-2.07-3.53-2.07-3.53z" fill="#b56f40"/><path d="m52.94 88.17 29.08-16.35 19.54 24.21-26.63 12.91z" fill="#233862"/><path d="m65.15 95.89s-.61 2.61-2.31 3.54 1 3.44.3 5.29 2 4.23 2 4.23l18.86 2.16a5.4 5.4 0 0 0 3-4.42c.24-3.23.53-7.26.53-7.26l-8.21-6.26-11.82.56z" fill="#c94c43"/><path d="m2 64.57a37.74 37.74 0 0 1 -1.44-4.26 15.86 15.86 0 0 1 -.55-3 4.75 4.75 0 0 1 .09-1.38s24.21-5 26.59-6 23.2-7.93 23.2-7.93a30.13 30.13 0 0 1 1.37 3.42c.24.74.48 1.55.67 2.39a12.53 12.53 0 0 1 .3 4.61s-24.53 2.91-27.07 4.13-23.16 8.02-23.16 8.02z" fill="#efcbab"/><path d="m.56 60.31a15.86 15.86 0 0 1 -.55-3 4.75 4.75 0 0 1 .09-1.38s24.21-5 26.59-6 23.2-7.93 23.2-7.93a30.13 30.13 0 0 1 1.37 3.42c.24.74.48 1.55.67 2.39-6.91.85-25.65 3.23-28 4.35s-17.19 6.1-23.37 8.15z" fill="#ddb08e"/><path d="m30.8 48.49s-6.46.63-8.8 2.7l1.37 6.1s5.94-.6 8.92-2.17z" fill="#c94c43"/><path d="m36.67 330.44s0-3.89.55-5.18 2.59-6.56 2.59-6.56h7.94a48.73 48.73 0 0 1 1.57 6.37c.09 1.57 0 5.37 0 5.37z" fill="#233862"/><path d="m87.1 330.44s0-3.89-.55-5.18-2.55-6.56-2.55-6.56h-8a48.68 48.68 0 0 0 -1.57 6.37c-.09 1.57 0 5.37 0 5.37z" fill="#233862"/><path d="m67.23 111.55s-1.59 8.51-3.28 12.18l-9.6 4.71 13.44 26.56 18.45-16.65-6.13-12s-.58-11.84 1.3-15.89-14.18 1.09-14.18 1.09z" fill="#b56f40"/><path d="m67 112.73s1.62 6.61 6.51 7.22 6.83-4.72 6.83-4.72z" fill="#99592e"/><path d="m73.32 117.46c-3.51-.6-9.27-6.29-8.38-12.1l1.39-9.06a3.66 3.66 0 0 1 3.88-3.3l13.44 2a3.66 3.66 0 0 1 2.69 4.36l-1.34 8.57c-.91 6.07-7.65 10.22-11.68 9.53z" fill="#b56f40"/><path d="m37.66 195.78c0-1.06 1.38 42.13-.69 66.65-2 24.21 0 57.91 0 57.91a15.71 15.71 0 0 0 13.85 0s7.9-46.77 7.85-57.91c-.05-11.86 8.6-64.8 8.6-64.8z" fill="#f99746"/><path d="m86.81 320.33a15.7 15.7 0 0 1 -13.85 0s-7.9-46.77-7.85-57.91c0-5-1.51-17.34-3.28-29.92-2.43-17.21-5.32-34.87-5.32-34.87l30.77-1.92s-2.54 42.51-.46 66.72-.01 57.9-.01 57.9z" fill="#f99746"/><path d="m70.44 106c-1.31-.2-3.89-.9-4-3.25a2.09 2.09 0 0 1 .65-1.72 2.47 2.47 0 0 1 2-.52l4 .62a1.8 1.8 0 0 1 1.49.9 2.67 2.67 0 0 1 -.42 2.26c-.86 1.4-1.83 2-3.06 1.78a7.38 7.38 0 0 1 -.66-.07zm-1.35-5.22a2.21 2.21 0 0 0 -1.83.45 1.83 1.83 0 0 0 -.56 1.5 3 3 0 0 0 2.3 2.61 8.06 8.06 0 0 0 2.22.45c1.11.17 2-.36 2.8-1.66.18-.29.73-1.3.4-2a1.56 1.56 0 0 0 -1.29-.75z" fill="#2c3a64"/><path d="m79.74 107.41a7.39 7.39 0 0 1 -.73-.15c-1.23-.19-2-1-2.38-2.62a2.67 2.67 0 0 1 .28-2.28 1.8 1.8 0 0 1 1.69-.41l4 .62a2.47 2.47 0 0 1 1.79 1.11 2.09 2.09 0 0 1 .1 1.83c-.77 2.21-3.44 2.1-4.75 1.9zm-1.18-5.19a1.56 1.56 0 0 0 -1.45.33c-.53.58-.3 1.7-.22 2 .37 1.48 1.06 2.25 2.17 2.42a8.06 8.06 0 0 0 2.25.24 3 3 0 0 0 3-1.82 1.83 1.83 0 0 0 -.08-1.6 2.2 2.2 0 0 0 -1.6-1z" fill="#2c3a64"/><path d="m74.15 103.17a.16.16 0 0 1 0-.31 3.81 3.81 0 0 1 3 .47.16.16 0 0 1 -.19.26 3.53 3.53 0 0 0 -2.77-.42z" fill="#2c3a64"/><path d="m70.6 128.43-9.09-3.94s-4.7 37.38 1.57 39.69c0 0 17.9-31.79 16.68-35.88z" fill="#fff"/><path d="m64.85 122.12a8.85 8.85 0 0 0 -3.9 1.72s1.95 6.33 7.13 8.22l2.22-3.63a11.06 11.06 0 0 1 -5.45-6.31z" fill="#d2e3fc"/><path d="m70.29 128.43s8.47-.33 9.71-4.43a6.89 6.89 0 0 1 1.63 4.63s-2.68 4-9.38 4.09z" fill="#d2e3fc"/><path d="m71 111.11s4.51.2 6.49 1a3.89 3.89 0 0 1 -3.17 1.35c-1.8-.28-3.06-1.14-3.32-2.35z" fill="#fff0e6"/><path d="m39.1 97.83c-4.09 2.58-9.67 6.07-14.23 8.82a16.75 16.75 0 0 1 -.48-2.08c-1.51-9.63.68-43.09.68-43.09a9.69 9.69 0 0 1 3.09-.89 4.17 4.17 0 0 1 4.08 1.75s5.16 29.43 6.86 35.49z" fill="#b56f40"/><path d="m111.47 214.18-3.08 1.28a9 9 0 0 1 -11.86-5.59c-2.17-6.71-2.4-13.94-3.2-19.88-.4-2.92-.85-9-2.63-13.65l3.1 104c-46.41 3.29-69-23.39-69-23.39-1.2-28.15 10-91.58 14.15-113.56-2-4.47-16-17.28-18.36-29.87-1.09-5.84 2.32-10 6.47-12.77a38.17 38.17 0 0 1 11.54-4.93l15 20.05a9.36 9.36 0 0 1 1.26 1.64c1.14 2.36 7.14 6.27 7.14 6.27s.65 33.8 1.87 34.88c1.77-.67 13.6-24.36 16.22-32.26a87.94 87.94 0 0 1 12.13 4.33s8.12 4.34 9.27 23.23c1 16 10.77 36.48 13 55.06a5 5 0 0 1 -3.02 5.16z" fill="#1c468a"/><path d="m60.34 122.62s1.1 32.66 2.49 40.83l20.83-36-2.87-1.06-16.46 29.83-1.63-32.44z" fill="#c94c43"/><path d="m64.85 121.35a8.86 8.86 0 0 0 -3.9 1.72s1.95 6.33 7.13 8.22l2.22-2.86s-4.23-2.77-5.45-7.08z" fill="#fff"/><path d="m70.29 128.43s8.47-1.1 9.73-5.18a6.89 6.89 0 0 1 1.63 4.63s-2.68 4-9.38 4.09z" fill="#fff"/><circle cx="59.41" cy="166.94" fill="#233862" r="1.54"/><circle cx="56.51" cy="180.79" fill="#233862" r="1.54"/><path d="m55 103.5.51-.48c-5.15-5.43-2.76-12.66-2.12-14.3a.57.57 0 0 0 -.13-.61.31.31 0 0 0 -.51.11c-.68 1.92-3.08 9.61 2.25 15.28z" fill="#efcbab"/><path d="m55.55 103.02.83.48-.9.81-.44-.81z" fill="#d8a987"/><path d="m56.38 103.49s1 1 1.38.8c0 0-.53 1-1.08 1a3.67 3.67 0 0 1 -1.2-1z" fill="#efcbab"/><path d="m65.62 97.85s3.61.24 4.67-1.58c0 0 2.93.73 4.22-.37 0 0 4.52.91 4.64-.91 0 0 3.45 6.91 7.24 5.47s-6.05-8.46-6.05-8.46l-12.88 1.72z" fill="#c94c43"/><path d="m65.88 92.68-.74 3.21s10.06-3.57 22.34 3.54l-.14-5.17a3.49 3.49 0 0 0 -1.27-2.6c-2.22-1.83-7.53-5.42-17.37-2.56-1.37.39-2.49 2.18-2.82 3.58z" fill="#1c468a"/><path d="m21.93 53.08a3.1 3.1 0 0 1 .21-2.87c.86-1.28 6.86-3.21 7.42-2.21s.2 4.64-1.71 5.44-5.78.44-5.92-.36z" fill="#b56f40"/><path d="m38.89 143.36c-2-4.47-16-17.28-18.36-29.87-1.09-5.84 2.32-10 6.47-12.77a23.29 23.29 0 0 0 3.57 16.81c5.52 7.99 8.32 25.83 8.32 25.83z" fill="#233862"/><path d="m108.38 215.46a9 9 0 0 1 -11.86-5.59c-2.17-6.71-2.4-13.94-3.2-19.88-.4-2.92-.85-9-2.63-13.65a117.79 117.79 0 0 1 10.31 22.36c4.88 13.88 3.36 15.91 7.38 16.76z" fill="#233862"/><path d="m261.59 181.26-2.73 29.84 4.05.63 11.48-26.55z" fill="#ffb27d"/><path d="m263.44 208.66a12.33 12.33 0 0 0 -.35 5.45c.39 1.55-2 3.68-4.69 6.63-.27.3-.77 0-.71-.4a2.93 2.93 0 0 1 .22-.73 23.53 23.53 0 0 1 1.87-3.07c-.11-.44-3 1.1-4.56 2.16-.93.62-3.63 3.53-4.35 3.1s.44-3.24 1.69-5.3 5.74-3.81 6.3-5.39 4.58-2.45 4.58-2.45z" fill="#ffb27d"/><path d="m276.55 73.02 29.71-12.67 27.4 13.07-27.4 13.9z" fill="#233862"/><path d="m281.35 87.58.42-.56c-6-4.5-4.82-12-4.46-13.75a.57.57 0 0 0 -.23-.58.31.31 0 0 0 -.49.19c-.38 2.01-1.48 10.01 4.76 14.7z" fill="#efcbab"/><path d="m281.78 87.02.89.33-.75.96-.57-.73z" fill="#d8a987"/><path d="m282.67 87.35s1.11.8 1.5.56c0 0-.36 1.05-.9 1.17a3.67 3.67 0 0 1 -1.34-.77z" fill="#efcbab"/><path d="m295.75 299.51-2.01 8.48-2.68 11.24h-8.36l-.5-10.77-.38-8.31z" fill="#ffb27d"/><path d="m279.39 331.59s0-4.09.58-5.45 2.72-6.9 2.72-6.9h8.36a51.28 51.28 0 0 1 1.65 6.71c.1 1.65 0 5.65 0 5.65z" fill="#233862"/><path d="m332.47 331.59s0-4.09-.58-5.45-2.72-6.9-2.72-6.9h-8.36a51.26 51.26 0 0 0 -1.65 6.71c-.1 1.65 0 5.65 0 5.65z" fill="#233862"/><path d="m299 101.88s-.29 9.11-1.46 13.2l-9.25 19.92 20.43 28.29 14.28-36.58-8.29-11.45s-2.5-12.22-1.19-16.74-14.52 3.36-14.52 3.36z" fill="#ffb27d"/><path d="m298.93 103.14s2.75 6.62 7.92 6.47 6.35-6 6.35-6z" fill="#ed985f"/><path d="m295.84 97.78s-1.67-8.34-2.84-10.87-2.14-13.8 10.79-14.39c0 0 5 .58 7.68-1.07 0 0 0 1.65-.68 2.24 0 0 3.37-2.12 6.87 1.77s-1.23 18.55-.94 21.75z" fill="#132644"/><path d="m306.26 107.05c-3.75-.07-10.65-5.06-10.65-11.24v-9.66c0-2.26 1.57-4.11 3.5-4.11h14.31c1.92 0 3.5 1.85 3.5 4.11v9.1c0 6.49-6.36 11.88-10.66 11.8z" fill="#ffb27d"/><path d="m295.61 91.31s0-5.8 4.61-6.69 14.87 2.83 16.33-1.4-19.87-4.16-20.94-1.46 0 9.55 0 9.55z" fill="#132644"/><path d="m297.52 115.07 8.55 1.92 8.64-2.08 2.21 13.26-9.7 33.01-10.61-39.55z" fill="#fff"/><path d="m297.1 117.79 6.79 5.07 2.23-3.65 2.06 3.65 7.23-6.3-1.43-1.65-7.91 2.08-8.55-.38z" fill="#d2e3fc"/><path d="m332.67 189.78-20.34 1.22c-.12-.19-.25-.19-.39 0l-6 .37-25.51-1.59s-6.42 29.28-3.9 68.31c.8 12.45 2.6 49.32 4.31 62.36l17.48.18c2.27-14.74 4.89-51.54 6.3-57.86q1-4.3 1.79-8.53a54.14 54.14 0 0 1 .82 7.43c0 2.59.75 6.72 1.79 11.7 1.47 7 5.8 39.3 7.09 47.74h18.35c.22-11.62 1.22-51.08 1.43-63 .57-31.77-3.22-68.33-3.22-68.33z" fill="#ee9849"/><path d="m346.71 292.66c-9.35 4.9-73 10.71-84.46-2.76-1.94-2.29 25.2-172.91 25.2-172.91s1.75-.51 4.7-1.06c1.51-.28 3.32-.58 5.37-.83 0 .64 4.42 28.35 10.4 39.15 0 0 6.78-14.91 6.82-39a2.71 2.71 0 0 0 0-.35c1.28.14 2.58.32 3.89.54q.83.14 1.66.31a53.6 53.6 0 0 1 6.31 1.66s22.06 174.23 20.11 175.25z" fill="#1c468a"/><path d="m294.84 115.42s-9.75 74.86-13.48 80.47c-1.57 2.35-3.85 2.73-6.55 2.21-.51-.1-1-.23-1.59-.39l-7.47-2.86c-1.21-.48-2.43-.94-3.65-1.32-7.68-2.38-7.08-8.84-5-17.65s15.6-51.24 20.17-54.24a43.88 43.88 0 0 1 17.57-6.22z" fill="#1c468a"/><path d="m314.71 114.91a77 77 0 0 0 -17.19.2.29.29 0 0 1 0 0s15.91-9.88 17.19-.2z" fill="#ffb27d"/><path d="m309.11 161.18c-9.84-7.25-17-45.25-17-45.25 1.51-.28 3.32-.58 5.37-.83 0 .64 4.18 26.82 10.16 37.63 0 0 7-13.39 7.07-37.47a2.71 2.71 0 0 0 0-.35c1.28.14 2.58.32 3.89.54q.83.14 1.66.31c.01 20.24-11.15 45.42-11.15 45.42z" fill="#bc3f3f"/><path d="m302.94 99.9s4.49-.45 6.57.06a3.89 3.89 0 0 1 -2.95 1.79c-1.82-.02-3.19-.7-3.62-1.85z" fill="#fff0e6"/><path d="m292.1 77.44.27 4.37s10.07-6.73 26.58-.55l-.23-6.32a4.34 4.34 0 0 0 -2.09-2.94c-3.1-1.78-10.35-5.09-21.81.45-1.61.78-2.61 3.21-2.72 4.99z" fill="#1c468a"/><path d="m298.27 111.05-3.43 4.37 9.08 6.21 2.15-4.64z" fill="#fff"/><path d="m314.01 111.05-7.94 5.94 2.28 4.64 7.82-6.55z" fill="#fff"/><circle cx="306.26" cy="127.68" fill="#d2e3fc" r=".63" transform="matrix(.70710678 -.70710678 .70710678 .70710678 -.59 253.93)"/><circle cx="306.26" cy="134.42" fill="#d2e3fc" r=".63" transform="matrix(.70710678 -.70710678 .70710678 .70710678 -5.36 255.9)"/><circle cx="306.26" cy="141.36" fill="#d2e3fc" r=".63" transform="matrix(.70710678 -.70710678 .70710678 .70710678 -10.27 257.93)"/><path d="m326.57 117.42a19.72 19.72 0 0 1 9.39 10c3.27 7.5 16.86 28 16.46 37.57s-2.24 18.32-11.37 18.62c-6.27.2-12.65-5.93-12.65-15.1s-1.83-51.09-1.83-51.09z" fill="#1c468a"/><path d="m346 178.28c-.25 2.59-1.21 4.67-3.53 5.25-7.32 1.83-10.56-5.24-9-12.16q.08-.35.18-.66c1.56-5.06 7.18-5.84 9.26-5.95h.78l.12.33c.51 1.53 2.67 8.26 2.19 13.19z" fill="#233862"/><path d="m346 178.28s-21.35-9.61-29.79-20.64c-.62-.81 1-1.81 1-1.81l25.71 8.93.89.31c.51 1.55 2.67 8.28 2.19 13.21z" fill="#ffb27d"/><path d="m292.7 156.35h28.2v37.17h-28.2z" fill="#fcecdb"/><path d="m304.29 182.55-3.17 5.3 2-.29.86 1.6 2.69-4.88z" fill="#932424"/><path d="m308.49 182.22 3.17 5.3-2.01-.29-.86 1.6-2.69-4.87z" fill="#932424"/><path d="m303.17 181.38a3.72 3.72 0 0 1 3.52-3.52c2.51-.38 3.52 1.58 3.52 3.52a3.52 3.52 0 0 1 -3.52 3.52c-1.95 0-3.82-1.6-3.52-3.52z" fill="#bc3f3f"/><path d="m306.68 184.18a3.05 3.05 0 0 1 -2.26-1 2.23 2.23 0 0 1 -.55-1.8 3 3 0 0 1 2.78-2.78 2.29 2.29 0 0 1 1.93.46 3 3 0 0 1 .91 2.34 2.81 2.81 0 0 1 -2.81 2.78zm.46-5.33a2.87 2.87 0 0 0 -.44 0 2.64 2.64 0 0 0 -2.51 2.51 1.91 1.91 0 0 0 .47 1.54 2.71 2.71 0 0 0 2 .91 2.48 2.48 0 0 0 2.48-2.48 2.73 2.73 0 0 0 -.79-2.09 1.82 1.82 0 0 0 -1.21-.38z" fill="#932424"/><g fill="#1c468a"><path d="m310.72 160.82h-7.85a.24.24 0 0 1 -.24-.24.24.24 0 0 1 .24-.24h7.85a.24.24 0 0 1 .24.24.24.24 0 0 1 -.24.24z"/><path d="m312.25 161.81h-10.9a.24.24 0 0 1 -.24-.24.24.24 0 0 1 .24-.24h10.89a.24.24 0 0 1 .24.24.24.24 0 0 1 -.23.24z"/><path d="m314.83 170h-16.07a.27.27 0 0 1 -.27-.27.27.27 0 0 1 .27-.27h16.07a.27.27 0 0 1 .27.27.27.27 0 0 1 -.27.27z"/><path d="m314.83 171.37h-16.07a.27.27 0 0 1 -.27-.27.27.27 0 0 1 .27-.27h16.07a.27.27 0 0 1 .27.27.27.27 0 0 1 -.27.27z"/><path d="m314.83 172.55h-16.07a.27.27 0 0 1 -.27-.27.27.27 0 0 1 .27-.27h16.07a.27.27 0 0 1 .27.27.27.27 0 0 1 -.27.27z"/><path d="m314.83 173.84h-16.07a.27.27 0 0 1 -.27-.27.27.27 0 0 1 .27-.27h16.07a.27.27 0 0 1 .27.27.27.27 0 0 1 -.27.27z"/><path d="m316.19 181.51a10.7 10.7 0 0 1 -1.62 1.09 1.32 1.32 0 0 0 .08-.45c0-.19-.16-.28-.32-.36l-.11-.06a.2.2 0 0 0 .05-.23.17.17 0 0 0 -.31 0 .25.25 0 0 0 0 .07h-.06c.09-.18.18-.35.26-.54a.1.1 0 0 0 0-.11.31.31 0 0 0 -.43.06.58.58 0 0 0 0 .56q-.18.32-.39.63l-.11-.13a1.9 1.9 0 0 0 .12-.52.1.1 0 0 0 -.14-.1.42.42 0 0 0 -.26.46.57.57 0 0 0 .06.19 1.75 1.75 0 0 1 -.15.26.09.09 0 0 0 0 .14 1.38 1.38 0 0 1 -.29.56c-.12.12-.33.21-.47.07a.6.6 0 0 1 -.11-.36 6.58 6.58 0 0 1 0-.9 1.37 1.37 0 0 1 .07-.42c0-.08.07-.21.11-.07a.79.79 0 0 1 0 .25.1.1 0 0 0 .2 0c0-.15.08-.46-.09-.55s-.27 0-.33.15a2.64 2.64 0 0 0 -.1 1.44c0 .36.16.8.62.69s.59-.66.69-1a.1.1 0 0 0 0-.06l.05.05.07.07-.14.19a.1.1 0 0 0 0 .12.23.23 0 0 0 .4-.17.33.33 0 0 0 0-.13q.21-.3.38-.61a.31.31 0 0 0 .24.09.74.74 0 0 0 .17.13 1.14 1.14 0 0 1 .17.09c.09.08.07.16 0 .27a4.34 4.34 0 0 1 -.11.43.89.89 0 0 0 -.46.49.5.5 0 0 0 .17.56.1.1 0 0 0 .15 0c.11-.28.21-.56.3-.84l.53-.29a10.13 10.13 0 0 0 1.31-.92c.03-.22-.1-.37-.2-.29zm-2.4-.26c0-.08 0-.22.13-.22l-.13.26s0-.03 0-.04zm.25 2.28c-.08-.16 0-.35.17-.47q-.08.23-.21.47z"/><path d="m319.79 192.45h-25.79v-34.81h25.79zm-25.5-.3h25.2v-34.22h-25.19z"/></g><path d="m311 153.52s-5.2 4.46-3.33 5.14 6.89-2.31 7.87-2.31h3.25s-3.21-3.71-4.9-3.62a7.21 7.21 0 0 0 -2.89.79z" fill="#ffb27d"/><path d="m281.35 145.6-6.55 52.5c-.51-.1-1-.23-1.59-.39l-7.47-2.86s2.3-2.38 5.43-10.65 10.18-38.6 10.18-38.6z" fill="#233862"/><path d="m228.07 3.37s7.59-5.27 13.28 2.63l6.25-2.69s-3.09-4.92-15.21-2.76c-7.93 1.45-4.32 2.82-4.32 2.82z" fill="#5685d8"/><path d="m220.6 8.52s2.06-8.52 17.62-8.52c0 0-5.83.55-10.38 8.12z" fill="#739af0"/><path d="m282.79 36.57a11.57 11.57 0 0 1 -6.71 2.15c-2.67-.14-5.4-2.48-5.51-2.64l-1.95 3.78s5 2.71 9.1 1.71a10.56 10.56 0 0 0 4.15-2.66 3.6 3.6 0 0 0 .92-2.34z" fill="#6bb7bf"/><path d="m282.35 28.9 5.22-2.45s-.22 11.1-9.2 14.9c-.01 0 5.42-7.84 3.98-12.45z" fill="#86d1cd"/></svg>